<svg width="48" height="48" viewBox="0 0 48 48" fill="none" xmlns="http://www.w3.org/2000/svg">
<circle cx="24" cy="24" r="24" fill="white"/>
<path d="M34.125 26.8125C34.125 27.2601 33.9472 27.6893 33.6307 28.0057C33.3143 28.3222 32.8851 28.5 32.4375 28.5H31.875V29.0625C31.875 29.5101 31.6972 29.9393 31.3807 30.2557C31.0643 30.5722 30.6351 30.75 30.1875 30.75C29.7399 30.75 29.3107 30.5722 28.9943 30.2557C28.6778 29.9393 28.5 29.5101 28.5 29.0625V28.5H27.9375C27.4899 28.5 27.0607 28.3222 26.7443 28.0057C26.4278 27.6893 26.25 27.2601 26.25 26.8125C26.25 26.3649 26.4278 25.9357 26.7443 25.6193C27.0607 25.3028 27.4899 25.125 27.9375 25.125H28.5V24.5625C28.5 24.1149 28.6778 23.6857 28.9943 23.3693C29.3107 23.0528 29.7399 22.875 30.1875 22.875C30.6351 22.875 31.0643 23.0528 31.3807 23.3693C31.6972 23.6857 31.875 24.1149 31.875 24.5625V25.125H32.4375C32.8851 25.125 33.3143 25.3028 33.6307 25.6193C33.9472 25.9357 34.125 26.3649 34.125 26.8125ZM20.0625 25.125H15.5625C15.1149 25.125 14.6857 25.3028 14.3693 25.6193C14.0528 25.9357 13.875 26.3649 13.875 26.8125C13.875 27.2601 14.0528 27.6893 14.3693 28.0057C14.6857 28.3222 15.1149 28.5 15.5625 28.5H20.0625C20.5101 28.5 20.9393 28.3222 21.2557 28.0057C21.5722 27.6893 21.75 27.2601 21.75 26.8125C21.75 26.3649 21.5722 25.9357 21.2557 25.6193C20.9393 25.3028 20.5101 25.125 20.0625 25.125ZM40.3125 20.0625V33C40.3125 33.7459 40.0162 34.4613 39.4887 34.9887C38.9613 35.5162 38.2459 35.8125 37.5 35.8125H10.5C9.75408 35.8125 9.03871 35.5162 8.51126 34.9887C7.98382 34.4613 7.6875 33.7459 7.6875 33V20.0625C7.6875 19.3166 7.98382 18.6012 8.51126 18.0738C9.03871 17.5463 9.75408 17.25 10.5 17.25H12.1875V15C12.1875 14.2541 12.4838 13.5387 13.0113 13.0113C13.5387 12.4838 14.2541 12.1875 15 12.1875H19.5C20.2459 12.1875 20.9613 12.4838 21.4887 13.0113C22.0162 13.5387 22.3125 14.2541 22.3125 15V17.25H25.6875V15C25.6875 14.2541 25.9838 13.5387 26.5113 13.0113C27.0387 12.4838 27.7541 12.1875 28.5 12.1875H33C33.7459 12.1875 34.4613 12.4838 34.9887 13.0113C35.5162 13.5387 35.8125 14.2541 35.8125 15V17.25H37.5C38.2459 17.25 38.9613 17.5463 39.4887 18.0738C40.0162 18.6012 40.3125 19.3166 40.3125 20.0625ZM29.0625 17.25H32.4375V15.5625H29.0625V17.25ZM15.5625 17.25H18.9375V15.5625H15.5625V17.25ZM36.9375 20.625H11.0625V32.4375H36.9375V20.625Z" fill="#2277BB"/>
</svg>
